<svg xmlns="http://www.w3.org/2000/svg" version="1.1" xmlns:xlink="http://www.w3.org/1999/xlink" xmlns:svgjs="http://svgjs.dev/svgjs" width="1000" height="625" viewBox="0 0 1000 625"><g transform="matrix(1,0,0,1,0,0)"><svg viewBox="0 0 512 320" data-background-color="#fafafa" preserveAspectRatio="xMidYMid meet" height="625" width="1000" xmlns="http://www.w3.org/2000/svg" xmlns:xlink="http://www.w3.org/1999/xlink"><g id="tight-bounds" transform="matrix(1,0,0,1,0,0)"><svg viewBox="0 0 512 320" height="320" width="512"><g><svg></svg></g><g><svg viewBox="0 0 512 320" height="320" width="512"><g><path xmlns="http://www.w3.org/2000/svg" d="M96 160c0-88.366 71.634-160 160-160 88.366 0 160 71.634 160 160 0 88.366-71.634 160-160 160-88.366 0-160-71.634-160-160z" fill="#130912" fill-rule="nonzero" stroke="none" stroke-width="1" stroke-linecap="butt" stroke-linejoin="miter" stroke-miterlimit="10" stroke-dasharray="" stroke-dashoffset="0" font-family="none" font-weight="none" font-size="none" text-anchor="none" style="mix-blend-mode: normal" data-fill-palette-color="tertiary"></path></g><g transform="matrix(1,0,0,1,153.6,95.35913396481733)"><svg viewBox="0 0 204.8 129.28173207036534" height="129.28173207036534" width="204.8"><g><svg viewBox="0 0 204.8 129.28173207036534" height="129.28173207036534" width="204.8"><g><svg viewBox="0 0 204.8 129.28173207036534" height="129.28173207036534" width="204.8"><g><svg viewBox="0 0 204.8 129.28173207036534" height="129.28173207036534" width="204.8"><g><svg viewBox="0 0 204.8 129.28173207036534" height="129.28173207036534" width="204.8"><g><svg viewBox="0 0 204.8 129.28173207036534" height="129.28173207036534" width="204.8"><g transform="matrix(1,0,0,1,0,0)"><svg width="204.8" viewBox="4 -36.5 73.9000015258789 46.650001525878906" height="129.28173207036534" data-palette-color="#fafafa"><path d="M16.7 0.65L16.7 0.65Q13.4 0.65 10.5-0.85 7.6-2.35 5.8-5.3 4-8.25 4-12.55L4-12.55 4-36.5 6.35-36.5 6.35-19.55 6.5-19.55Q7.4-21.45 8.97-22.93 10.55-24.4 12.63-25.25 14.7-26.1 16.95-26.1L16.95-26.1Q20.3-26.1 23.15-24.53 26-22.95 27.75-20 29.5-17.05 29.5-12.85L29.5-12.85Q29.5-9.55 28.45-7.03 27.4-4.5 25.6-2.8 23.8-1.1 21.5-0.23 19.2 0.65 16.7 0.65ZM16.65-1.45L16.65-1.45Q19.35-1.45 21.73-2.75 24.1-4.05 25.6-6.58 27.1-9.1 27.1-12.75L27.1-12.75Q27.1-16.25 25.63-18.78 24.15-21.3 21.8-22.65 19.45-24 16.75-24L16.75-24Q14.1-24 11.73-22.7 9.35-21.4 7.88-18.88 6.4-16.35 6.4-12.65L6.4-12.65Q6.4-9 7.85-6.5 9.3-4 11.65-2.73 14-1.45 16.65-1.45ZM49.1 0L43.85 0Q40.45 0 38.52-1.95 36.6-3.9 36.6-7.25L36.6-7.25 36.6-31.9 39-31.9 39-7.7Q39-5 40.35-3.55 41.7-2.1 44.4-2.1L44.4-2.1 49.1-2.1 49.1 0ZM49.25-23.4L32.15-23.4 32.15-25.5 49.25-25.5 49.25-23.4ZM67.7 10.15L65.3 10.15 65.3 0.55Q62.59 0.35 60.27-1.03 57.95-2.4 56.52-4.83 55.09-7.25 55.09-10.6L55.09-10.6 55.09-25.5 57.5-25.5 57.5-10.75Q57.5-7.75 58.8-5.65 60.09-3.55 62.15-2.5 64.2-1.45 66.45-1.45L66.45-1.45Q68.8-1.45 70.87-2.53 72.95-3.6 74.27-5.68 75.59-7.75 75.59-10.75L75.59-10.75 75.59-25.5 77.9-25.5 77.9-10.6Q77.9-7.2 76.5-4.78 75.09-2.35 72.75-1.03 70.4 0.3 67.7 0.55L67.7 0.55 67.7 10.15Z" opacity="1" transform="matrix(1,0,0,1,0,0)" fill="#fafafa" class="undefined-text-0" data-fill-palette-color="quaternary" id="text-0"></path></svg></g></svg></g></svg></g></svg></g><g></g></svg></g></svg></g></svg></g></svg></g><defs></defs></svg><rect width="512" height="320" fill="none" stroke="none" visibility="hidden"></rect></g></svg></g></svg>